<?xml version="1.0" encoding="UTF-8"?>
<svg width="29px" height="22px" viewBox="0 0 29 22" version="1.1" xmlns="http://www.w3.org/2000/svg" xmlns:xlink="http://www.w3.org/1999/xlink">
    <!-- Generator: Sketch 51.3 (57544) - http://www.bohemiancoding.com/sketch -->
    <title>ico-about</title>
    <desc>Created with Sketch.</desc>
    <defs></defs>
    <g id="Page-1" stroke="none" stroke-width="1" fill="none" fill-rule="evenodd">
        <g id="home" transform="translate(-20.000000, -390.000000)" fill="#B7BECD">
            <g id="icons-side" transform="translate(20.000000, 84.000000)">
                <path d="M15.141,325.307 L15.141,317.409 C15.141,316.857 14.693,316.409 14.141,316.409 L8.648,316.409 C8.096,316.409 7.648,316.857 7.648,317.409 L7.648,325.307 L4.556,325.307 L4.556,314.546 L23.726,314.546 L23.726,325.307 L15.141,325.307 Z M9.648,325.307 L13.141,325.307 L13.141,318.409 L9.648,318.409 L9.648,325.307 Z M6.763,308 L7.648,308 L7.648,312.546 L4.556,312.546 L4.556,310.207 C4.556,308.99 5.546,308 6.763,308 Z M9.648,312.546 L13.141,312.546 L13.141,308 L9.648,308 L9.648,312.546 Z M15.141,312.546 L18.498,312.546 L18.498,308 L15.141,308 L15.141,312.546 Z M23.726,310.207 L23.726,312.546 L20.498,312.546 L20.498,308 L21.519,308 C22.736,308 23.726,308.99 23.726,310.207 Z M27.488,325.307 L25.726,325.307 L25.726,310.207 C25.726,307.888 23.839,306 21.519,306 L6.763,306 C4.443,306 2.556,307.888 2.556,310.207 L2.556,325.307 L1,325.307 C0.448,325.307 0,325.755 0,326.307 C0,326.859 0.448,327.307 1,327.307 L3.556,327.307 L8.648,327.307 L14.141,327.307 L24.726,327.307 L27.488,327.307 C28.04,327.307 28.488,326.859 28.488,326.307 C28.488,325.755 28.04,325.307 27.488,325.307 Z" id="ico-about"></path>
            </g>
        </g>
    </g>
</svg>