<?xml version="1.0" encoding="utf-8"?>
<!-- Generator: Adobe Illustrator 23.0.3, SVG Export Plug-In . SVG Version: 6.00 Build 0)  -->
<svg version="1.1" id="Layer_1" xmlns="http://www.w3.org/2000/svg" xmlns:xlink="http://www.w3.org/1999/xlink" x="0px" y="0px"
	 viewBox="0 0 130 59" style="enable-background:new 0 0 130 59;" xml:space="preserve">
<style type="text/css">
	.st0{fill:#F4F4F4;}
	.st1{fill:#0054FF;}
</style>
<path class="st0" d="M31.9,2h66.2c15.2,0,27.5,12.3,27.5,27.5S113.3,57,98.1,57H31.9C16.7,57,4.4,44.7,4.4,29.5S16.7,2,31.9,2z"/>
<g>
	<path class="st1" d="M65,43c-0.4,0-0.8-0.1-1.1-0.3L46.1,31.2c-0.8-0.5-1-1.6-0.4-2.3c0.6-0.7,1.8-0.9,2.6-0.3L65,39.4l16.7-10.8
		c0.8-0.5,2-0.4,2.6,0.3c0.6,0.7,0.4,1.7-0.4,2.3L66.1,42.7C65.8,42.9,65.4,43,65,43z"/>
	<path class="st1" d="M65,30.7c-0.4,0-0.8-0.1-1.1-0.3L46.1,18.9c-0.8-0.5-1-1.6-0.4-2.3c0.6-0.7,1.8-0.9,2.6-0.3L65,27.1l16.7-10.8
		c0.8-0.5,2-0.4,2.6,0.3c0.6,0.7,0.4,1.7-0.4,2.3L66.1,30.4C65.8,30.6,65.4,30.7,65,30.7z"/>
</g>
</svg>
