<?xml version="1.0" encoding="UTF-8"?>
<svg width="24px" height="22px" viewBox="0 0 24 22" version="1.1" xmlns="http://www.w3.org/2000/svg" xmlns:xlink="http://www.w3.org/1999/xlink">
    <!-- Generator: Sketch 51.3 (57544) - http://www.bohemiancoding.com/sketch -->
    <title>ico-home</title>
    <desc>Created with Sketch.</desc>
    <defs></defs>
    <g id="nav-home" stroke="none" stroke-width="1" fill="none" fill-rule="evenodd">
        <g id="home" transform="translate(-23.000000, -84.000000)" fill="#B7BECD">
            <g id="icons-side" transform="translate(20.000000, 84.000000)">
                <path d="M14.8218,15.1292 C13.7188,15.1292 12.8218,14.2322 12.8218,13.1292 C12.8218,12.0262 13.7188,11.1292 14.8218,11.1292 C15.9248,11.1292 16.8218,12.0262 16.8218,13.1292 C16.8218,14.2322 15.9248,15.1292 14.8218,15.1292 M14.8218,9.1292 C17.0278,9.1292 18.8218,10.9232 18.8218,13.1292 C18.8218,15.3352 17.0278,17.1292 14.8218,17.1292 C12.6158,17.1292 10.8218,15.3352 10.8218,13.1292 C10.8218,10.9232 12.6158,9.1292 14.8218,9.1292 Z M26.3257,10.3577 C26.7297,10.7337 26.7517,11.3667 26.3747,11.7717 C26.1787,11.9827 25.9107,12.0887 25.6437,12.0887 C25.3987,12.0887 25.1547,12.0007 24.9617,11.8207 L24.0317,10.9537 L24.0317,20.4827 C24.0317,21.0357 23.5837,21.4827 23.0317,21.4827 C22.4787,21.4827 22.0317,21.0357 22.0317,20.4827 L22.0317,9.0887 L14.8217,2.3677 L7.6127,9.0877 L7.6127,20.4827 C7.6127,21.0357 7.1647,21.4827 6.6127,21.4827 C6.0607,21.4827 5.6127,21.0357 5.6127,20.4827 L5.6127,10.9527 L4.6817,11.8207 C4.2787,12.1967 3.6447,12.1747 3.2687,11.7717 C2.8917,11.3667 2.9137,10.7337 3.3177,10.3577 L14.1397,0.2687 C14.5247,-0.0893 15.1187,-0.0893 15.5037,0.2687 L26.3257,10.3577 Z" id="ico-home"></path>
            </g>
        </g>
    </g>
</svg>
