<?xml version="1.0" encoding="UTF-8"?>
<svg width="22px" height="21px" viewBox="0 0 22 21" version="1.1" xmlns="http://www.w3.org/2000/svg" xmlns:xlink="http://www.w3.org/1999/xlink">
    <!-- Generator: Sketch 51.3 (57544) - http://www.bohemiancoding.com/sketch -->
    <title>ico-portfolio</title>
    <desc>Created with Sketch.</desc>
    <defs></defs>
    <g id="Page-1" stroke="none" stroke-width="1" fill="none" fill-rule="evenodd">
        <g id="home" transform="translate(-24.000000, -286.000000)" fill="#B7BECD">
            <g id="icons-side" transform="translate(20.000000, 84.000000)">
                <path d="M22.3013,220.728 L7.0003,220.728 L7.0003,215.084 L12.7323,215.084 C13.1913,215.639 13.8763,216 14.6503,216 C15.4253,216 16.1103,215.639 16.5693,215.084 L22.3013,215.084 L22.3013,220.728 Z M6.0003,208.344 C6.0003,207.845 6.4053,207.44 6.9043,207.44 L10.5423,207.44 L18.7593,207.44 L22.3973,207.44 C22.8953,207.44 23.3013,207.845 23.3013,208.344 L23.3013,213.084 L17.1083,213.084 C16.9083,211.904 15.8863,211 14.6503,211 C13.4143,211 12.3923,211.904 12.1923,213.084 L6.0003,213.084 L6.0003,208.344 Z M11.5423,204.587 C11.5423,204.264 11.8053,204 12.1293,204 L17.1723,204 C17.4953,204 17.7593,204.264 17.7593,204.587 L17.7593,205.44 L11.5423,205.44 L11.5423,204.587 Z M22.3973,205.44 L19.7593,205.44 L19.7593,204.587 C19.7593,203.161 18.5983,202 17.1723,202 L12.1293,202 C10.7023,202 9.5423,203.161 9.5423,204.587 L9.5423,205.44 L6.9043,205.44 C5.3023,205.44 4.0003,206.743 4.0003,208.344 L4.0003,214.084 C4.0003,214.636 4.4473,215.084 5.0003,215.084 L5.0003,221.728 C5.0003,222.28 5.4473,222.728 6.0003,222.728 L23.3013,222.728 C23.8533,222.728 24.3013,222.28 24.3013,221.728 L24.3013,215.084 C24.8533,215.084 25.3013,214.636 25.3013,214.084 L25.3013,208.344 C25.3013,206.743 23.9983,205.44 22.3973,205.44 Z" id="ico-portfolio"></path>
            </g>
        </g>
    </g>
</svg>