<?xml version="1.0" encoding="UTF-8"?>
<svg width="21px" height="16px" viewBox="0 0 21 16" version="1.1" xmlns="http://www.w3.org/2000/svg" xmlns:xlink="http://www.w3.org/1999/xlink">
    <!-- Generator: Sketch 51.3 (57544) - http://www.bohemiancoding.com/sketch -->
    <title>ico-contact</title>
    <desc>Created with Sketch.</desc>
    <defs></defs>
    <g id="Page-1" stroke="none" stroke-width="1" fill="none" fill-rule="evenodd">
        <g id="home" transform="translate(-24.000000, -494.000000)" fill="#B7BECD">
            <g id="icons-side" transform="translate(20.000000, 84.000000)">
                <path d="M8.481,412 L20.396,412 L14.439,416.696 L8.481,412 Z M18.668,419.995 C18.241,419.646 17.612,419.707 17.261,420.134 C16.911,420.562 16.973,421.191 17.4,421.542 L20.326,423.939 L8.417,423.939 L11.342,421.542 C11.769,421.191 11.832,420.562 11.481,420.134 C11.131,419.707 10.502,419.646 10.074,419.995 L6.215,423.157 C6.082,422.927 6,422.664 6,422.38 L6,413.559 C6,413.269 6.085,413 6.223,412.767 L13.819,418.754 C14.001,418.897 14.22,418.969 14.439,418.969 C14.657,418.969 14.876,418.897 15.058,418.754 L22.653,412.767 C22.793,413 22.877,413.269 22.877,413.559 L22.877,422.38 C22.877,422.695 22.782,422.988 22.62,423.233 L18.668,419.995 Z M23.186,410.543 C22.642,410.205 22.005,410 21.318,410 L7.559,410 C6.871,410 6.234,410.205 5.69,410.543 C5.671,410.553 5.654,410.562 5.636,410.573 C4.654,411.207 4,412.306 4,413.559 L4,422.38 C4,423.658 4.683,424.772 5.698,425.4 C6.272,425.743 6.891,425.939 7.559,425.939 L21.318,425.939 C23.281,425.939 24.877,424.342 24.877,422.38 L24.877,413.559 C24.877,412.306 24.223,411.207 23.24,410.573 C23.222,410.562 23.205,410.553 23.186,410.543 Z" id="ico-contact"></path>
            </g>
        </g>
    </g>
</svg>