<?xml version="1.0" encoding="UTF-8"?>
<svg width="23px" height="23px" viewBox="0 0 23 23" version="1.1" xmlns="http://www.w3.org/2000/svg" xmlns:xlink="http://www.w3.org/1999/xlink">
    <!-- Generator: Sketch 51.3 (57544) - http://www.bohemiancoding.com/sketch -->
    <title>ico-services</title>
    <desc>Created with Sketch.</desc>
    <defs></defs>
    <g id="Page-1" stroke="none" stroke-width="1" fill="none" fill-rule="evenodd">
        <g id="home" transform="translate(-24.000000, -185.000000)" fill="#B7BECD">
            <g id="icons-side" transform="translate(20.000000, 84.000000)">
                <path d="M14.5451,116.0371 C14.4431,116.0371 14.3391,116.0211 14.2371,115.9881 C13.7121,115.8181 13.4231,115.2541 13.5931,114.7281 L15.2741,109.5361 C15.4441,109.0111 16.0071,108.7251 16.5331,108.8921 C17.0591,109.0631 17.3471,109.6261 17.1771,110.1521 L15.4971,115.3451 C15.3591,115.7671 14.9671,116.0371 14.5451,116.0371 Z M11.1857,116.0366 C10.9297,116.0366 10.6737,115.9386 10.4787,115.7436 L7.8827,113.1476 C7.4917,112.7566 7.4917,112.1236 7.8827,111.7336 L10.4787,109.1376 C10.8697,108.7466 11.5017,108.7466 11.8927,109.1376 C12.2837,109.5276 12.2837,110.1606 11.8927,110.5516 L10.0037,112.4406 L11.8927,114.3296 C12.2837,114.7206 12.2837,115.3526 11.8927,115.7436 C11.6977,115.9386 11.4417,116.0366 11.1857,116.0366 Z M19.5842,116.0366 C19.3282,116.0366 19.0722,115.9386 18.8772,115.7436 C18.4862,115.3526 18.4862,114.7196 18.8772,114.3296 L20.7662,112.4406 L18.8772,110.5516 C18.4862,110.1616 18.4862,109.5276 18.8772,109.1376 C19.2682,108.7466 19.9002,108.7466 20.2912,109.1376 L22.8882,111.7336 C23.0752,111.9206 23.1812,112.1756 23.1812,112.4406 C23.1812,112.7056 23.0752,112.9596 22.8882,113.1476 L20.2912,115.7436 C20.0962,115.9386 19.8402,116.0366 19.5842,116.0366 Z M15.385,103 C10.21,103 6,107.21 6,112.385 C6,117.561 10.21,121.771 15.385,121.771 C20.56,121.771 24.77,117.561 24.77,112.385 C24.77,107.21 20.56,103 15.385,103 M15.385,123.771 C9.107,123.771 4,118.663 4,112.385 C4,106.107 9.107,101 15.385,101 C21.663,101 26.77,106.107 26.77,112.385 C26.77,118.663 21.663,123.771 15.385,123.771" id="ico-services"></path>
            </g>
        </g>
    </g>
</svg>