<?xml version="1.0" encoding="UTF-8"?>
<svg width="258px" height="60px" viewBox="0 0 258 60" version="1.1" xmlns="http://www.w3.org/2000/svg" xmlns:xlink="http://www.w3.org/1999/xlink">
    <!-- Generator: Sketch 51.3 (57544) - http://www.bohemiancoding.com/sketch -->
    <title>logo</title>
    <desc>Created with Sketch.</desc>
    <defs></defs>
    <g id="Page-1" stroke="none" stroke-width="1" fill="none" fill-rule="evenodd">
        <g id="home" transform="translate(-138.000000, -151.000000)">
            <g id="logo" transform="translate(138.000000, 151.000000)">
                <path d="M237.126504,29.3911419 C237.126504,32.853317 239.942837,35.670065 243.405013,35.670065 C246.867188,35.670065 249.683521,32.853317 249.683521,29.3911419 C249.683521,25.9289668 246.867188,23.1126332 243.405013,23.1126332 C239.942837,23.1126332 237.126504,25.9289668 237.126504,29.3911419 Z M229.22137,29.3911419 C229.22137,21.5705725 235.584029,15.2079138 243.405013,15.2079138 C251.225582,15.2079138 257.588241,21.5705725 257.588241,29.3911419 C257.588241,37.2121258 251.225582,43.5747845 243.405013,43.5747845 C235.584029,43.5747845 229.22137,37.2121258 229.22137,29.3911419 Z M207.885799,39.056961 C205.173098,36.1469432 203.831671,32.3548002 204.109408,28.3786049 C204.601458,21.3398437 210.28304,15.6905954 217.325117,15.2379259 C217.635188,15.2180284 217.948989,15.207665 218.257815,15.207665 C221.718747,15.207665 225.054075,16.4732326 227.649463,18.7709861 C227.894866,18.9882011 228.041196,19.300344 228.05073,19.6282392 C228.060679,19.9548908 227.933832,20.2753244 227.702937,20.5062189 L223.783948,24.4256233 C223.560929,24.6482273 223.264538,24.7709289 222.949079,24.7709289 C222.675902,24.7709289 222.407285,24.6751719 222.192143,24.5018973 C221.082025,23.6060927 219.684222,23.112799 218.257815,23.112799 C216.476155,23.112799 214.770768,23.8767824 213.578573,25.2090897 C212.37104,26.5583929 211.817225,28.2990147 212.019102,30.110107 C212.334147,32.9376329 214.608686,35.2536257 217.427507,35.6163416 C217.703585,35.6519914 217.982566,35.6698163 218.256986,35.6698163 C219.682149,35.6698163 221.078294,35.1773518 222.187998,34.2836198 C222.404798,34.1095161 222.675488,34.0133446 222.950323,34.0133446 C223.265782,34.0133446 223.562173,34.1356317 223.784777,34.3582356 L227.702937,38.2763964 C227.934247,38.507291 228.060679,38.8277246 228.051145,39.1552052 C228.041196,39.4818568 227.895281,39.7935852 227.650706,40.0099712 C225.055319,42.3085537 221.719576,43.5745358 218.257815,43.5745358 C214.344214,43.5745358 210.563678,41.9275983 207.885799,39.056961 Z M190.665499,17.567474 C190.665499,17.2623781 190.769961,17.0236074 190.980543,16.8515764 C191.189882,16.67996 191.409584,16.5941518 191.638406,16.5941518 L198.736031,16.5941518 C198.964853,16.5941518 199.183726,16.67996 199.394309,16.8515764 C199.603647,17.0236074 199.708524,17.2623781 199.708524,17.567474 L199.708524,42.623474 C199.708524,42.9293989 199.603647,43.1673406 199.394309,43.338957 C199.183726,43.5105734 198.964853,43.5963817 198.736031,43.5963817 L191.638406,43.5963817 C191.409584,43.5963817 191.189882,43.5105734 190.980543,43.338957 C190.769961,43.1673406 190.665499,42.9293989 190.665499,42.623474 L190.665499,17.567474 Z M192.278693,13.5221346 C191.593056,13.5221346 191.035096,12.9641739 191.035096,12.2785372 L191.035096,6.46098868 C191.035096,5.775352 191.593056,5.2173913 192.278693,5.2173913 L198.095827,5.2173913 C198.781878,5.2173913 199.339424,5.775352 199.339424,6.46098868 L199.339424,12.2785372 C199.339424,12.9641739 198.781878,13.5221346 198.095827,13.5221346 L192.278693,13.5221346 Z M182.523848,43.911302 C181.837382,44.0062299 181.036091,44.0543157 180.120389,44.0543157 C178.861039,44.0543157 177.649361,43.853682 176.485768,43.4536581 C175.320932,43.0528052 174.310716,42.461682 173.45222,41.6790447 C172.593308,40.897651 171.906843,39.9330339 171.391579,38.7889244 C170.876729,37.6439857 170.619305,36.3274306 170.619305,34.8392591 L170.619305,23.8632686 L168.0434,23.8632686 C167.737475,23.8632686 167.499534,23.7588064 167.327917,23.5482239 C167.156301,23.3392996 167.070492,23.1191828 167.070492,22.8903609 L167.070492,17.5673496 C167.070492,17.3385277 167.156301,17.11924 167.327917,16.9090721 C167.499534,16.7001477 167.737475,16.5944419 168.0434,16.5944419 L170.619305,16.5944419 L170.619305,13.6052484 L171.706623,8.5114735 C171.821034,7.8627302 172.144784,7.53815128 172.679531,7.53815128 L178.689008,7.53815128 C178.918245,7.53815128 179.137118,7.6239595 179.347286,7.79557594 C179.556625,7.96719238 179.661916,8.20596307 179.661916,8.5114735 L179.661916,16.5944419 L183.725992,16.5944419 C184.030673,16.5944419 184.269444,16.7001477 184.441061,16.9090721 C184.613092,17.11924 184.6989,17.3385277 184.6989,17.5673496 L184.6989,22.8903609 C184.6989,23.1191828 184.613092,23.3392996 184.441061,23.5482239 C184.269444,23.7588064 184.030673,23.8632686 183.725992,23.8632686 L179.661916,23.8632686 L179.661916,33.9235569 C179.661916,34.1523788 179.709587,34.429701 179.805344,34.7534509 C179.899858,35.0780298 180.071889,35.3930744 180.320608,35.6981703 C180.568498,36.0036808 180.921266,36.26152 181.379324,36.4708588 C181.837382,36.6810268 182.447159,36.785489 183.211143,36.785489 L183.725992,36.785489 C183.916263,36.785489 184.106947,36.766835 184.298461,36.7282835 C184.603143,36.7282835 184.841914,36.8335747 185.01353,37.0429136 C185.185561,37.2534961 185.271369,37.4723693 185.271369,37.7011912 L185.271369,42.5661441 C185.271369,42.7953806 185.175612,43.0150828 184.985342,43.2244217 C184.793828,43.4345896 184.545937,43.5776033 184.241256,43.6534628 C183.783198,43.7297367 183.211143,43.815545 182.523848,43.911302 Z M155.154938,13.5221346 C154.469302,13.5221346 153.911341,12.9641739 153.911341,12.2785372 L153.911341,6.46098868 C153.911341,5.775352 154.469302,5.2173913 155.154938,5.2173913 L160.972487,5.2173913 C161.658124,5.2173913 162.216084,5.775352 162.216084,6.46098868 L162.216084,12.2785372 C162.216084,12.9641739 161.658124,13.5221346 160.972487,13.5221346 L155.154938,13.5221346 Z M153.542158,17.567474 C153.542158,17.2623781 153.646621,17.0236074 153.856789,16.8515764 C154.066127,16.67996 154.286244,16.5941518 154.515066,16.5941518 L161.612276,16.5941518 C161.841098,16.5941518 162.060386,16.67996 162.270554,16.8515764 C162.479893,17.0236074 162.585184,17.2623781 162.585184,17.567474 L162.585184,42.623474 C162.585184,42.9293989 162.479893,43.1673406 162.270554,43.338957 C162.060386,43.5105734 161.841098,43.5963817 161.612276,43.5963817 L154.515066,43.5963817 C154.286244,43.5963817 154.066127,43.5105734 153.856789,43.338957 C153.646621,43.1673406 153.542158,42.9293989 153.542158,42.623474 L153.542158,17.567474 Z M122.251532,49.1967981 C122.166552,48.4589303 122.747727,47.8122597 123.48974,47.8122597 L128.713678,47.8122597 C129.304387,47.8122597 129.796022,48.231352 129.929916,48.806723 C130.381342,50.7496367 132.127353,52.2017439 134.205404,52.2017439 C136.28387,52.2017439 138.029881,50.7496367 138.481306,48.806723 C138.6152,48.231352 139.106836,47.8122597 139.697545,47.8122597 L144.921483,47.8122597 C145.663496,47.8122597 146.24467,48.4589303 146.159691,49.1967981 C145.471153,55.1822323 140.372818,59.8453079 134.205404,59.8453079 C128.038405,59.8453079 122.94007,55.1822323 122.251532,49.1967981 Z M127.333368,29.4574671 C127.333368,25.9074111 130.221416,23.0193634 133.771057,23.0193634 C137.321113,23.0193634 140.209161,25.9074111 140.209161,29.4574671 C140.209161,33.007523 137.321113,35.8955707 133.771057,35.8955707 C130.221416,35.8955707 127.333368,33.007523 127.333368,29.4574671 Z M144.33293,14.406208 C143.861606,13.93447 143.097208,13.93447 142.625885,14.406208 L140.355491,16.6770168 C138.380658,15.6556088 136.143012,15.0744343 133.771057,15.0744343 C125.840222,15.0744343 119.388439,21.526632 119.388439,29.4574671 C119.388439,37.3883021 125.840222,43.8404998 133.771057,43.8404998 C141.701892,43.8404998 148.15409,37.3883021 148.15409,29.4574671 C148.15409,27.0850978 147.57333,24.8478661 146.551922,22.8730335 L148.822731,20.6026392 C149.29364,20.1313158 149.29364,19.3669179 148.822731,18.8955945 L144.33293,14.406208 Z M95.7815443,26.7442692 C96.4887366,24.8817749 98.8988284,23.0196951 101.544789,23.0196951 C104.262464,23.0196951 106.643124,24.7192781 107.435295,26.7442692 L95.7815443,26.7442692 Z M101.544789,15.2841048 C93.7238051,15.2841048 87.3607319,21.646349 87.3607319,29.4669184 C87.3607319,38.0477403 95.0644031,47.1628946 110.059286,43.1535366 C111.849651,42.6751662 113.068791,42.295869 112.89759,41.395919 C112.725973,40.495969 111.990178,36.2984133 111.990178,36.2984133 C111.875352,35.610704 111.479474,35.4158737 110.679841,35.5572293 C109.880208,35.6981703 99.0016324,39.1707088 96.0605246,32.7027588 L113.123924,32.7027588 C115.095855,32.7027588 115.237211,31.9379464 115.237211,30.1368029 C115.237211,22.3158189 110.075038,15.2841048 101.544789,15.2841048 Z M81.8180012,43.911302 C81.1311209,44.0062299 80.3298297,44.0543157 79.4141275,44.0543157 C78.1547778,44.0543157 76.9430995,43.853682 75.7795068,43.4536581 C74.6150852,43.0528052 73.604455,42.461682 72.7459583,41.6790447 C71.8874616,40.897651 71.2005813,39.9330339 70.685732,38.7889244 C70.1704681,37.6439857 69.9130435,36.3274306 69.9130435,34.8392591 L69.9130435,8.5114735 C69.9130435,7.87392257 70.3512043,7.53815128 70.8859512,7.53815128 L77.9831614,7.53815128 C78.2119833,7.53815128 78.431271,7.6239595 78.641439,7.79557594 C78.8503633,7.96719238 78.9560691,8.20596307 78.9560691,8.5114735 L78.9560691,33.9235569 C78.9560691,34.1523788 79.0033258,34.429701 79.0990828,34.7534509 C79.1940107,35.0780298 79.3656272,35.3930744 79.6143466,35.6981703 C79.862237,36.0036808 80.2154187,36.26152 80.6730625,36.4708588 C81.1311209,36.6810268 81.7408982,36.785489 82.5048815,36.785489 L83.0197308,36.785489 C83.2104157,36.785489 83.4011007,36.766835 83.5922001,36.7282835 C83.897296,36.7282835 84.1360667,36.8335747 84.3076831,37.0429136 C84.4792996,37.2534961 84.5651078,37.4723693 84.5651078,37.7011912 L84.5651078,42.5661441 C84.5651078,42.7953806 84.4693508,43.0150828 84.2790804,43.2244217 C84.0875664,43.4345896 83.8400905,43.5776033 83.5349946,43.6534628 C83.0769363,43.7297367 82.5048815,43.815545 81.8180012,43.911302 Z" id="gray" fill="#0054FF"></path>
                <path d="M28.8706511,49.4580715 C20.2475469,49.4580715 12.7963259,44.3502025 9.37892033,37.0013711 C9.19984231,36.6158559 9.29062492,36.1565539 9.59157548,35.8560179 L19.8367452,25.6108481 C20.4361592,25.0110197 21.4086523,25.0110197 22.0084808,25.6108481 L33.2634516,36.8658189 C33.8628655,37.4652329 34.8353587,37.4652329 35.4351872,36.8658189 L40.6454456,31.6555605 C41.2452741,31.0553175 42.2177673,31.0553175 42.8175957,31.6551459 L47.7766475,36.6137832 C48.0879614,36.9250971 48.1729406,37.4042966 47.9710633,37.7956152 C44.3986225,44.7149911 37.1795397,49.4580715 28.8706511,49.4580715 M55.6001187,41.987782 C55.8645904,41.4857832 56.1141389,40.9746647 56.3504224,40.4564991 C56.3591276,40.4366015 56.3690764,40.416704 56.3781961,40.397221 C56.4076279,40.3321394 56.4391324,40.2687159 56.4681496,40.2040488 L56.4615171,40.1982454 C56.8030919,39.4288731 57.1168929,38.6445777 57.3962878,37.8441155 C57.5596136,37.3761084 57.4302795,36.8554556 57.0799995,36.5051757 L43.5413694,22.9677892 C42.5415171,21.9683514 40.9211097,21.9683514 39.921672,22.9677892 L35.0728858,27.8161608 C34.6732765,28.2161846 34.0249477,28.2161846 33.6253384,27.8161608 L22.7322545,16.9234914 C21.7328167,15.9240536 20.1119948,15.9240536 19.112557,16.9234914 L0.386053148,35.6495807 C0.0457219984,35.9903264 -0.0869283887,36.4923252 0.0581579722,36.9512126 C0.300244929,37.7172686 0.574665417,38.468816 0.872299723,39.2083419 L0.857376555,39.2220214 C5.326451,50.3128374 16.1992229,58.1607659 28.8706511,58.1607659 C39.819697,58.1607659 49.4219269,52.2988624 54.7146773,43.5505694 L54.71675,43.5530566 C54.735404,43.5223812 54.7511562,43.4904622 54.7698101,43.4593722 C55.0529358,42.9880488 55.3252836,42.5092638 55.5827083,42.0213591 C55.5889263,42.0101668 55.5943152,41.9985599 55.6001187,41.987782" id="Fill-1" fill="#0054FF"></path>
                <path d="M6.08036212,24.2882859 C6.48826206,23.8803859 6.79335795,23.376729 6.94507683,22.8200119 C9.56243478,13.2223419 18.3484503,6.14295652 28.7644074,6.14295652 C39.6433973,6.14295652 48.7490173,13.8644527 50.8996117,24.1141823 C51.0326766,24.7488314 51.356841,25.3283478 51.8153139,25.7868207 L56.3689529,30.3400453 C56.7760238,30.7471161 57.4794854,30.4793282 57.5039428,29.9039571 C57.5201096,29.5259035 57.5288148,29.1461918 57.5288148,28.7639929 C57.5288148,12.9031519 44.6248338,0 28.7644074,0 C12.9031519,0 0,12.9031519 0,28.7639929 L0,28.7648219 C0.00041453246,29.3559452 0.715068493,29.6535795 1.13291721,29.2357308 L6.08036212,24.2882859 Z" id="Fill-3" fill="#2A2A2A"></path>
            </g>
        </g>
    </g>
</svg>